<svg width="36" height="29" viewBox="0 0 36 29" fill="none" xmlns="http://www.w3.org/2000/svg">
<path fill-rule="evenodd" clip-rule="evenodd" d="M23.1429 3.81963C23.1578 3.12992 22.9815 2.44952 22.6337 1.85375C22.2859 1.25798 21.78 0.770059 21.172 0.443989C20.5641 0.117918 19.8778 -0.0335882 19.189 0.00623583C18.5003 0.0460599 17.836 0.275661 17.2697 0.669632L17.262 0.674774L7.308 7.66392H3.85714C1.74857 7.66392 0 9.41249 0 11.5211V16.6639C0 18.7725 1.74857 20.5211 3.85714 20.5211H7.30029L17.0203 27.5051L17.0383 27.5179C19.5326 29.2459 23.076 27.4562 23.1429 24.4065V3.81963ZM35.4343 9.19392C35.7954 9.55552 35.9983 10.0457 35.9983 10.5568C35.9983 11.0678 35.7954 11.558 35.4343 11.9196L33.264 14.0925L35.4343 16.2653C35.7749 16.6309 35.9604 17.1145 35.9516 17.6141C35.9428 18.1137 35.7404 18.5905 35.387 18.9438C35.0337 19.2971 34.557 19.4996 34.0573 19.5084C33.5577 19.5172 33.0742 19.3317 32.7086 18.9911L30.5357 16.8208L28.3629 18.9911C28.1863 19.1805 27.9734 19.3325 27.7368 19.4379C27.5002 19.5433 27.2449 19.6 26.9859 19.6046C26.727 19.6092 26.4697 19.5615 26.2296 19.4645C25.9895 19.3675 25.7713 19.2231 25.5882 19.04C25.4051 18.8569 25.2607 18.6387 25.1637 18.3986C25.0667 18.1585 25.0191 17.9012 25.0236 17.6423C25.0282 17.3833 25.0849 17.128 25.1903 16.8914C25.2957 16.6548 25.4477 16.4419 25.6371 16.2653L27.8074 14.0925L25.6371 11.9196C25.2965 11.554 25.111 11.0705 25.1198 10.5709C25.1286 10.0712 25.3311 9.59452 25.6844 9.24117C26.0377 8.88783 26.5145 8.68543 27.0141 8.67661C27.5137 8.66779 27.9973 8.85325 28.3629 9.19392L30.5357 11.3642L32.7086 9.19392C33.0702 8.83276 33.5604 8.6299 34.0714 8.6299C34.5825 8.6299 35.0727 8.83276 35.4343 9.19392Z" fill="black"/>
</svg>
