<svg width="22" height="22" viewBox="0 0 22 22" fill="none" xmlns="http://www.w3.org/2000/svg">
<g clip-path="url(#clip0_990_677)">
<path d="M10.9995 3.44867L2.55782 11.504C2.25885 11.7892 1.90711 11.9316 1.50262 11.9309C1.09812 11.9302 0.746385 11.7879 0.44741 11.504C0.148435 11.22 -0.00070099 10.8844 2.47699e-06 10.497C0.000705944 10.1097 0.149842 9.77408 0.44741 9.49014L9.94427 0.427936C10.2432 0.142645 10.5953 0 11.0005 0C11.4057 0 11.7571 0.142645 12.0547 0.427936L21.5515 9.49014C21.8505 9.77543 22 10.1114 22 10.4981C22 10.8847 21.8505 11.22 21.5515 11.504C21.2526 11.7879 20.9008 11.9302 20.4963 11.9309C20.0918 11.9316 19.7401 11.7892 19.4411 11.504L10.9995 3.44867ZM10.9995 13.5178L2.55782 21.5731C2.25885 21.8584 1.90711 22.0007 1.50262 22C1.09812 21.9993 0.746385 21.857 0.44741 21.5731C0.148435 21.2891 -0.000700864 20.9535 2.60278e-06 20.5662C0.00070607 20.1788 0.149842 19.8432 0.44741 19.5592L9.94427 10.497C10.2432 10.2118 10.5953 10.0691 11.0005 10.0691C11.4057 10.0691 11.7571 10.2118 12.0547 10.497L21.5515 19.5592C21.8505 19.8445 22 20.1805 22 20.5672C22 20.9538 21.8505 21.2891 21.5515 21.5731C21.2526 21.857 20.9008 21.9993 20.4963 22C20.0918 22.0007 19.7401 21.8584 19.4411 21.5731L10.9995 13.5178Z" fill="#0088FF"/>
</g>
<defs>
<clipPath id="clip0_990_677">
<rect width="22" height="22" fill="white"/>
</clipPath>
</defs>
</svg>
